<?xml version="1.0" encoding="utf-8"?>
<!-- Generator: Adobe Illustrator 19.1.0, SVG Export Plug-In . SVG Version: 6.00 Build 0)  -->
<svg version="1.1" id="Layer_1" xmlns="http://www.w3.org/2000/svg" xmlns:xlink="http://www.w3.org/1999/xlink" x="0px" y="0px"
	 viewBox="0 0 685 220" style="enable-background:new 0 0 685 220;" xml:space="preserve">
<style type="text/css">
	.st0{opacity:0.15;fill:none;stroke:#FFFFFF;stroke-width:2;stroke-miterlimit:10;}
</style>
<g>
	<g>
		<path class="st0" d="M419.2,219c29.1,0,56.5-11.3,77.1-31.9c20.6-20.6,31.9-48,31.9-77.1s-11.3-56.5-31.9-77.1
			C475.6,12.3,448.3,1,419.2,1l0,0 M266.1,1c-29.1,0-56.5,11.3-77.1,31.9c-20.6,20.6-31.9,48-31.9,77.1s11.3,56.5,31.9,77.1
			c20.6,20.6,48,31.9,77.1,31.9"/>
		<line class="st0" x1="0" y1="110.2" x2="157" y2="110.2"/>
	</g>
	<g>
		<line class="st0" x1="528" y1="110.2" x2="685" y2="110.2"/>
	</g>
</g>
</svg>
